<svg xmlns="http://www.w3.org/2000/svg" width="256" height="256" viewBox="0 0 100 100"><rect width="100" height="100" rx="20" fill="#574b90"></rect><path fill="#fff" d="M53.27 67.92L42.72 67.92L40.97 61.23L29.37 61.23L27.56 67.92L16.97 67.92L28.61 32.08L41.48 32.08L53.27 67.92ZM31.37 53.32L38.96 53.32L37.43 47.46Q36.89 45.51 36.12 42.41Q35.35 39.31 35.11 37.96L35.11 37.96Q34.89 39.21 34.24 42.07Q33.59 44.92 31.37 53.32L31.37 53.32ZM83.03 43.58L83.03 43.58Q83.03 49.56 79.50 52.82Q75.98 56.08 69.48 56.08L69.48 56.08L66.77 56.08L66.77 67.92L57.13 67.92L57.13 32.23L69.48 32.23Q76.25 32.23 79.64 35.18Q83.03 38.13 83.03 43.58ZM66.77 40.01L66.77 48.22L68.53 48.22Q70.70 48.22 71.98 47.00Q73.27 45.78 73.27 43.63L73.27 43.63Q73.27 40.01 69.26 40.01L69.26 40.01L66.77 40.01Z"></path></svg>