<svg xmlns="http://www.w3.org/2000/svg" width="256" height="256" viewBox="0 0 100 100"><rect width="100" height="100" rx="20" fill="#434994"></rect><path fill="#fff" d="M53.21 71.50L43.42 71.50L40.32 61.31L24.70 61.31L21.60 71.50L11.81 71.50L26.93 28.50L38.03 28.50L53.21 71.50ZM26.99 53.69L38.15 53.69Q33.84 39.83 33.30 38.02Q32.76 36.20 32.52 35.15L32.52 35.15Q31.56 38.90 26.99 53.69L26.99 53.69ZM67.68 36.11L67.68 48.83L70.67 48.83Q74.86 48.83 76.94 47.17Q79.02 45.52 79.02 42.35L79.02 42.35Q79.02 39.16 77.28 37.64Q75.53 36.11 71.81 36.11L71.81 36.11L67.68 36.11ZM88.19 42.03L88.19 42.03Q88.19 48.95 83.87 52.61Q79.55 56.27 71.58 56.27L71.58 56.27L67.68 56.27L67.68 71.50L58.60 71.50L58.60 28.67L72.28 28.67Q80.07 28.67 84.13 32.03Q88.19 35.38 88.19 42.03Z"></path></svg>